<svg width="24.000000" height="24.000000" viewBox="0 0 24 24" fill="none" xmlns="http://www.w3.org/2000/svg" xmlns:xlink="http://www.w3.org/1999/xlink">
	<defs>
		<clipPath id="clip6_195">
			<rect id="check-circle.svg" width="24.000000" height="24.000000" fill="white" fill-opacity="0"/>
		</clipPath>
	</defs>
	<g clip-path="url(#clip6_195)">
		<path id="path" d="M21.02 11.09L21 11.07C21 10.51 21.43 10.07 22 10.07C22.56 10.07 23 10.51 23 11.07L22.98 11.09L21.02 11.09ZM16.45 1.95L16.47 1.94C16.98 2.17 17.21 2.75 16.98 3.26C16.75 3.77 16.17 4 15.66 3.77L15.65 3.74L16.45 1.95Z" fill="#000000" fill-opacity="0" fill-rule="nonzero"/>
		<path id="path" d="M22 11.07L22 11.99C21.99 13.44 21.69 14.82 21.09 16.14C20.49 17.46 19.64 18.59 18.55 19.54C17.46 20.49 16.22 21.17 14.83 21.58C13.44 21.99 12.03 22.09 10.6 21.89C9.17 21.69 7.84 21.2 6.62 20.42C5.4 19.64 4.39 18.65 3.61 17.43C2.82 16.22 2.32 14.89 2.1 13.46C1.89 12.03 1.98 10.62 2.38 9.23C2.78 7.84 3.45 6.59 4.39 5.49C5.33 4.39 6.46 3.54 7.77 2.92C9.08 2.31 10.46 2 11.91 1.99C13.36 1.98 14.74 2.27 16.07 2.85" stroke="#55E180" stroke-opacity="1.000000" stroke-width="2.000000" stroke-linejoin="round" stroke-linecap="round"/>
		<path id="polyline" d="M21.29 3.32L21.29 3.29C21.68 2.89 22.31 2.89 22.7 3.29C23.1 3.68 23.1 4.31 22.7 4.7L22.67 4.7L21.29 3.32ZM8.32 11.71L8.29 11.71C7.89 11.32 7.89 10.69 8.29 10.3C8.68 9.9 9.31 9.9 9.7 10.3L9.7 10.33L8.32 11.71Z" fill="#000000" fill-opacity="0" fill-rule="nonzero"/>
		<path id="polyline" d="M22 4L12 14.01L9 11.01" stroke="#55E180" stroke-opacity="1.000000" stroke-width="2.000000" stroke-linejoin="round" stroke-linecap="round"/>
	</g>
</svg>
