<svg width="56.000000" height="56.000000" viewBox="0 0 56 56" fill="none" xmlns="http://www.w3.org/2000/svg" xmlns:xlink="http://www.w3.org/1999/xlink">
	<defs>
		<clipPath id="clip11_87">
			<rect id="at-sign.svg" width="56.000000" height="56.000000" fill="white" fill-opacity="0"/>
		</clipPath>
	</defs>
	<g clip-path="url(#clip11_87)">
		<circle id="circle" cx="28.000000" cy="28.000000" r="9.333333" fill="#000000" fill-opacity="0"/>
		<circle id="circle" cx="28.000000" cy="28.000000" r="9.333333" stroke="#55E180" stroke-opacity="1.000000" stroke-width="4.666667" stroke-linejoin="round"/>
		<path id="path" d="M35.02 18.68L35 18.66C35 17.35 36.02 16.33 37.33 16.33C38.64 16.33 39.66 17.35 39.66 18.66L39.64 18.68L35.02 18.68ZM40.76 44.7L40.76 44.67C41.8 43.87 43.24 44.07 44.03 45.1C44.83 46.14 44.64 47.58 43.6 48.37L43.57 48.37L40.76 44.7Z" fill="#000000" fill-opacity="0" fill-rule="nonzero"/>
		<path id="path" d="M37.33 18.66L37.33 30.33C37.33 32.26 38.01 33.91 39.38 35.28C40.75 36.64 42.4 37.33 44.33 37.33C46.26 37.33 47.91 36.64 49.28 35.28C50.64 33.91 51.33 32.26 51.33 30.33L51.33 28C51.33 26.25 51.13 24.52 50.75 22.82C50.36 21.12 49.79 19.48 49.03 17.91C48.28 16.33 47.36 14.86 46.27 13.49C45.19 12.12 43.96 10.89 42.6 9.8C41.24 8.71 39.77 7.78 38.2 7.02C36.63 6.25 35 5.67 33.3 5.27C31.6 4.88 29.87 4.67 28.13 4.66C26.38 4.65 24.66 4.84 22.95 5.21C21.25 5.59 19.6 6.15 18.03 6.9C16.45 7.65 14.97 8.56 13.6 9.64C12.22 10.71 10.98 11.93 9.88 13.29C8.78 14.64 7.85 16.1 7.07 17.67C6.3 19.23 5.71 20.86 5.3 22.56C4.9 24.26 4.68 25.98 4.66 27.73C4.64 29.48 4.82 31.2 5.18 32.91C5.55 34.62 6.1 36.26 6.84 37.84C7.58 39.43 8.48 40.91 9.55 42.29C10.62 43.67 11.83 44.91 13.18 46.02C14.53 47.13 15.98 48.08 17.55 48.86C19.11 49.64 20.74 50.24 22.43 50.66C24.13 51.07 25.85 51.3 27.59 51.33C29.34 51.36 31.07 51.19 32.78 50.83C34.49 50.48 36.13 49.93 37.72 49.21C39.31 48.48 40.8 47.58 42.18 46.52" stroke="#55E180" stroke-opacity="1.000000" stroke-width="4.666667" stroke-linejoin="round" stroke-linecap="round"/>
	</g>
</svg>
