<svg width="40.000000" height="40.000000" viewBox="0 0 40 40" fill="none" xmlns="http://www.w3.org/2000/svg" xmlns:xlink="http://www.w3.org/1999/xlink">
	<rect id="фрейм 1" width="40.000000" height="40.000000" fill="#FFFFFF" fill-opacity="0"/>
	<circle id="Эллипс 1" cx="20.000000" cy="20.000000" r="20.000000" fill="#DEE6E7" fill-opacity="1.000000"/>
	<circle id="Эллипс 1" cx="20.000000" cy="20.000000" r="19.000000" stroke="#D4DCE3" stroke-opacity="0" stroke-width="2.000000"/>
	<path id="path" d="M30.55 29.83L30.57 29.85C30.57 30.41 30.13 30.85 29.57 30.85C29.01 30.85 28.57 30.41 28.57 29.85L28.59 29.83L30.55 29.83ZM12.26 29.83L12.28 29.85C12.28 30.41 11.84 30.85 11.28 30.85C10.72 30.85 10.28 30.41 10.28 29.85L10.3 29.83L12.26 29.83Z" fill="#000000" fill-opacity="0" fill-rule="nonzero"/>
	<path id="path" d="M29.57 29.85L29.57 27.57C29.57 26.3 29.12 25.23 28.23 24.33C27.33 23.44 26.26 23 25 23L15.85 23C14.59 23 13.51 23.44 12.62 24.33C11.73 25.23 11.28 26.3 11.28 27.57L11.28 29.85" stroke="#000000" stroke-opacity="1.000000" stroke-width="2.000000" stroke-linejoin="round" stroke-linecap="round"/>
	<circle id="circle" cx="20.428711" cy="13.857147" r="4.571429" fill="#000000" fill-opacity="0"/>
	<circle id="circle" cx="20.428711" cy="13.857147" r="4.571429" stroke="#000000" stroke-opacity="1.000000" stroke-width="2.000000" stroke-linejoin="round"/>
</svg>
