<svg width="24.000000" height="24.000000" viewBox="0 0 24 24" fill="none" xmlns="http://www.w3.org/2000/svg" xmlns:xlink="http://www.w3.org/1999/xlink">
	<defs>
		<clipPath id="clip18_290">
			<rect id="message-circle.svg" width="24.000000" height="24.000000" fill="white" fill-opacity="0"/>
		</clipPath>
	</defs>
	<g clip-path="url(#clip18_290)">
		<path id="path" d="M21 11.5C21 12.83 20.7 14.1 20.1 15.29C19.38 16.73 18.33 17.88 16.96 18.72C15.59 19.57 14.1 19.99 12.5 20C11.16 20 9.89 19.7 8.69 19.1L3 21L4.89 15.29C4.29 14.1 3.99 12.83 4 11.5C4 9.89 4.42 8.4 5.27 7.03C6.11 5.66 7.26 4.61 8.69 3.89C9.89 3.29 11.16 2.99 12.5 3L13 3C14.04 3.05 15.03 3.29 15.99 3.72C16.94 4.15 17.79 4.73 18.52 5.47C19.26 6.2 19.84 7.05 20.27 8C20.7 8.96 20.94 9.95 21 11L21 11.5Z" fill="#000000" fill-opacity="0" fill-rule="nonzero"/>
		<path id="path" d="M20.1 15.29C19.38 16.73 18.33 17.88 16.96 18.72C15.59 19.57 14.1 19.99 12.5 20C11.16 20 9.89 19.7 8.69 19.1L3 21L4.89 15.29C4.29 14.1 3.99 12.83 4 11.5C4 9.89 4.42 8.4 5.27 7.03C6.11 5.66 7.26 4.61 8.69 3.89C9.89 3.29 11.16 2.99 12.5 3L13 3C14.04 3.05 15.03 3.29 15.99 3.72C16.94 4.15 17.79 4.73 18.52 5.47C19.26 6.2 19.84 7.05 20.27 8C20.7 8.96 20.94 9.95 21 11L21 11.5C21 12.83 20.7 14.1 20.1 15.29Z" stroke="#000000" stroke-opacity="1.000000" stroke-width="2.000000" stroke-linejoin="round"/>
	</g>
</svg>
