<svg width="18.500000" height="18.500000" viewBox="0 0 18.5 18.5" fill="none" xmlns="http://www.w3.org/2000/svg" xmlns:xlink="http://www.w3.org/1999/xlink">
	<circle id="circle" cx="9.250000" cy="9.250000" r="2.318182" fill="#000000" fill-opacity="0"/>
	<circle id="circle" cx="9.250000" cy="9.250000" r="2.318182" stroke="#000000" stroke-opacity="1.000000" stroke-width="1.500000" stroke-linejoin="round"/>
	<path id="path" d="M14.96 11.56C14.73 12.09 14.82 12.56 15.22 12.97C15.52 13.27 15.72 13.68 15.72 14.11C15.72 14.54 15.57 14.9 15.26 15.2C14.96 15.5 14.6 15.66 14.17 15.66C13.74 15.66 13.38 15.5 13.08 15.2C12.67 14.8 12.15 14.67 11.62 14.9C11.11 15.12 10.85 15.51 10.85 16.07L10.85 16.2C10.85 16.63 10.7 16.99 10.4 17.29C10.1 17.59 9.73 17.75 9.31 17.75C8.88 17.75 8.52 17.59 8.21 17.29C7.91 16.99 7.76 16.63 7.76 16.2C7.75 15.62 7.47 15.16 6.93 14.96C6.4 14.73 5.93 14.82 5.52 15.22C5.22 15.52 4.81 15.72 4.38 15.72C3.95 15.72 3.59 15.57 3.29 15.26C2.98 14.96 2.83 14.6 2.83 14.17C2.83 13.74 2.98 13.38 3.29 13.08C3.69 12.67 3.82 12.15 3.59 11.63C3.37 11.11 2.98 10.85 2.42 10.85L2.29 10.85C1.86 10.85 1.5 10.7 1.2 10.4C0.9 10.1 0.75 9.73 0.75 9.31C0.75 8.88 0.9 8.52 1.2 8.21C1.5 7.91 1.86 7.76 2.29 7.76C2.87 7.75 3.33 7.47 3.53 6.93C3.76 6.4 3.67 5.93 3.27 5.52C2.97 5.22 2.77 4.81 2.77 4.38C2.77 3.95 2.92 3.59 3.23 3.29C3.53 2.99 3.89 2.83 4.32 2.83C4.75 2.83 5.11 2.99 5.41 3.29C5.82 3.69 6.34 3.82 6.87 3.59C7.38 3.37 7.7 2.98 7.7 2.42L7.7 2.29C7.7 1.86 7.85 1.5 8.15 1.2C8.45 0.9 8.82 0.75 9.25 0.75C9.67 0.75 10.04 0.9 10.34 1.2C10.64 1.5 10.79 1.86 10.79 2.29C10.79 2.85 11.05 3.31 11.56 3.53C12.09 3.76 12.56 3.67 12.97 3.27C13.27 2.97 13.68 2.77 14.11 2.77C14.54 2.77 14.9 2.92 15.2 3.23C15.51 3.53 15.66 3.89 15.66 4.32C15.66 4.75 15.51 5.11 15.2 5.41C14.8 5.82 14.67 6.34 14.9 6.87C15.12 7.38 15.51 7.7 16.07 7.7L16.2 7.7C16.63 7.7 16.99 7.85 17.29 8.15C17.59 8.45 17.75 8.82 17.75 9.25C17.75 9.67 17.59 10.04 17.29 10.34C16.99 10.64 16.63 10.79 16.2 10.79C15.64 10.79 15.18 11.05 14.96 11.56Z" fill="#000000" fill-opacity="0" fill-rule="nonzero"/>
	<path id="path" d="M15.22 12.97C15.52 13.27 15.72 13.68 15.72 14.11C15.72 14.54 15.57 14.9 15.26 15.2C14.96 15.5 14.6 15.66 14.17 15.66C13.74 15.66 13.38 15.5 13.08 15.2C12.67 14.8 12.15 14.67 11.62 14.9C11.11 15.12 10.85 15.51 10.85 16.07L10.85 16.2C10.85 16.63 10.7 16.99 10.4 17.29C10.1 17.59 9.73 17.75 9.31 17.75C8.88 17.75 8.52 17.59 8.21 17.29C7.91 16.99 7.76 16.63 7.76 16.2C7.75 15.62 7.47 15.16 6.93 14.96C6.4 14.73 5.93 14.82 5.52 15.22C5.22 15.52 4.81 15.72 4.38 15.72C3.95 15.72 3.59 15.57 3.29 15.26C2.98 14.96 2.83 14.6 2.83 14.17C2.83 13.74 2.98 13.38 3.29 13.08C3.69 12.67 3.82 12.15 3.59 11.63C3.37 11.11 2.98 10.85 2.42 10.85L2.29 10.85C1.86 10.85 1.5 10.7 1.2 10.4C0.9 10.1 0.75 9.73 0.75 9.31C0.75 8.88 0.9 8.52 1.2 8.21C1.5 7.91 1.86 7.76 2.29 7.76C2.87 7.75 3.33 7.47 3.53 6.93C3.76 6.4 3.67 5.93 3.27 5.52C2.97 5.22 2.77 4.81 2.77 4.38C2.77 3.95 2.92 3.59 3.23 3.29C3.53 2.99 3.89 2.83 4.32 2.83C4.75 2.83 5.11 2.99 5.41 3.29C5.82 3.69 6.34 3.82 6.87 3.59C7.38 3.37 7.7 2.98 7.7 2.42L7.7 2.29C7.7 1.86 7.85 1.5 8.15 1.2C8.45 0.9 8.82 0.75 9.25 0.75C9.67 0.75 10.04 0.9 10.34 1.2C10.64 1.5 10.79 1.86 10.79 2.29C10.79 2.85 11.05 3.31 11.56 3.53C12.09 3.76 12.56 3.67 12.97 3.27C13.27 2.97 13.68 2.77 14.11 2.77C14.54 2.77 14.9 2.92 15.2 3.23C15.51 3.53 15.66 3.89 15.66 4.32C15.66 4.75 15.51 5.11 15.2 5.41C14.8 5.82 14.67 6.34 14.9 6.87C15.12 7.38 15.51 7.7 16.07 7.7L16.2 7.7C16.63 7.7 16.99 7.85 17.29 8.15C17.59 8.45 17.75 8.82 17.75 9.25C17.75 9.67 17.59 10.04 17.29 10.34C16.99 10.64 16.63 10.79 16.2 10.79C15.64 10.79 15.18 11.05 14.96 11.56C14.73 12.09 14.82 12.56 15.22 12.97Z" stroke="#000000" stroke-opacity="1.000000" stroke-width="1.500000" stroke-linejoin="round"/>
</svg>
